<?xml version="1.0" standalone="no"?>
<!DOCTYPE svg PUBLIC "-//W3C//DTD SVG 20010904//EN"
 "http://www.w3.org/TR/2001/REC-SVG-20010904/DTD/svg10.dtd">
<svg version="1.0" xmlns="http://www.w3.org/2000/svg"
 width="260.000000pt" height="260.000000pt" viewBox="0 0 260.000000 260.000000"
 preserveAspectRatio="xMidYMid meet">
<metadata>
Created by potrace 1.14, written by Peter Selinger 2001-2017
</metadata>
<g transform="translate(0.000000,260.000000) scale(0.100000,-0.100000)"
fill="#000000" stroke="none">
<path d="M1090 2553 c-70 -12 -195 -49 -280 -83 -162 -65 -265 -133 -397 -260
-182 -176 -300 -388 -359 -647 -27 -117 -25 -424 4 -548 20 -85 58 -198 86
-255 79 -160 135 -240 251 -356 204 -206 440 -324 715 -359 145 -19 226 -19
370 0 135 17 161 24 300 78 279 108 550 363 666 628 60 136 83 216 105 359 48
314 -25 643 -202 907 -67 100 -232 265 -332 332 -130 87 -311 162 -471 196
-71 14 -385 20 -456 8z m415 -277 c240 -52 444 -182 597 -382 131 -172 198
-374 198 -599 0 -483 -331 -884 -815 -986 -77 -17 -293 -17 -370 0 -425 90
-738 414 -805 833 -17 105 -8 300 19 401 26 98 78 219 124 289 157 235 405
403 662 447 33 6 71 13 85 15 47 8 235 -3 305 -18z"/>
<path d="M1567 1796 c23 -14 53 -27 65 -30 13 -4 -2 7 -32 23 -66 36 -93 41
-33 7z"/>
<path d="M1090 1605 c-26 -32 13 -81 48 -59 34 22 22 74 -18 74 -10 0 -23 -7
-30 -15z"/>
<path d="M1480 1491 c-14 -4 21 -7 77 -7 55 1 96 4 90 8 -15 10 -133 8 -167
-1z"/>
<path d="M337 1464 c-4 -4 -7 -87 -7 -184 l0 -177 26 -27 c26 -25 29 -26 159
-26 l131 0 28 58 c26 55 27 61 24 207 l-3 150 -47 3 -47 3 -3 -163 -3 -163
-80 0 -80 0 -5 160 -5 160 -40 3 c-23 2 -44 0 -48 -4z"/>
<path d="M777 1442 c-27 -28 -27 -28 -27 -184 0 -142 2 -158 21 -182 l20 -26
165 0 165 0 -3 46 -3 46 -130 1 -130 2 -3 113 -3 112 109 0 108 0 22 45 c12
25 22 48 22 50 0 3 -69 5 -153 5 l-153 0 -27 -28z"/>
<path d="M1177 1464 c-4 -4 -7 -99 -7 -211 l0 -203 50 0 50 0 -2 208 -3 207
-40 3 c-23 2 -44 0 -48 -4z"/>
<path d="M1356 1449 l-26 -20 0 -168 c0 -222 -11 -211 204 -211 l157 0 -3 46
-3 46 -130 1 -130 2 0 110 0 110 107 3 108 3 20 39 c11 22 20 44 20 50 0 6
-52 10 -149 10 -135 0 -151 -2 -175 -21z"/>
<path d="M1750 1260 l0 -210 45 0 44 0 3 78 3 77 30 0 c27 0 34 -7 70 -77 l40
-78 47 0 48 0 -53 105 -52 106 51 100 c55 107 54 113 -8 107 -30 -3 -36 -9
-76 -86 -40 -76 -46 -83 -70 -80 -27 3 -27 4 -30 86 l-3 82 -44 0 -45 0 0
-210z"/>
<path d="M2170 1260 l0 -210 45 0 45 0 0 210 0 210 -45 0 -45 0 0 -210z"/>
<path d="M1701 1416 c22 -78 -37 -126 -154 -126 -38 0 -78 5 -90 11 -21 11
-21 10 -5 -6 10 -11 37 -20 67 -23 114 -11 205 49 199 131 -2 22 -8 42 -15 44
-9 3 -9 -5 -2 -31z"/>
</g>
</svg>
